<svg xmlns="http://www.w3.org/2000/svg" version="1.1" xmlns:xlink="http://www.w3.org/1999/xlink" xmlns:svgjs="http://svgjs.com/svgjs" x="0" y="0" viewBox="0 0 512.001 512.001" style="enable-background:new 0 0 512 512" xml:space="preserve"><g><g><g><path d="M194.168,183.251c-0.896-2.55-2.468-6.104-5.354-6.754c-2.164-1.027-4.923-0.882-6.756,0.689&#10;&#9;&#9;&#9;c-1.133,0.971-2.158,2.798-3.379,3.497c-0.55,0.314-1.082,1.063-0.993,1.732c0.066,0.498,0.131,0.997,0.197,1.495&#10;&#9;&#9;&#9;c0.185,1.412,1.831,1.989,2.701,0.731c0.02-0.03,0.041-0.059,0.061-0.089c0.663,0.04,1.316-0.006,2.014-0.136&#10;&#9;&#9;&#9;c0.012,0.218,0.032,0.438,0.022,0.609c-0.023,0.37-0.067,0.737-0.104,1.106c-0.032,0.312,0.007,0.631,0.044,0.756&#10;&#9;&#9;&#9;c-0.089,1.318-0.677,2.464-0.088,3.993c0.93,2.414,2.578,4.174,5.264,4.536c2.508,0.336,4.987-0.829,6.309-3.023&#10;&#9;&#9;&#9;C195.7,189.745,195.154,186.06,194.168,183.251z" fill="currentColor" data-original="#000000"/></g></g><g><g><path d="M509.629,450.757c2.631-7.763,3.651-15.592,0.005-23.431c-2.531-5.437-5.836-7.489-12.068-6.836&#10;&#9;&#9;&#9;c-3.634,0.381-7.065,1.737-10.693,2.111c-5.304,0.548-10.628-0.371-15.939-0.03c-4.51,0.289-8.909,1.469-13.414,1.756&#10;&#9;&#9;&#9;c-0.012,0-0.025,0-0.036,0.001c3.038-1.382,5.441-2.322,7.624-5.597c2.902-4.355,7.513-7.677,10.944-11.707&#10;&#9;&#9;&#9;c2.333-2.738,5.573-5.018,6.182-8.787c0.173-1.07-0.093-2.423-1.199-2.946c-3.977-1.883-7.537-1.166-11.463,0.579&#10;&#9;&#9;&#9;c-5.601,2.49-10.654,4.054-16.669,5.41c-14.051,3.164-27.965,6.367-42.141,8.993c-7.066,1.309-13.969,2.882-21.185,3.076&#10;&#9;&#9;&#9;c-7.159,0.193-14.314-0.062-21.473-0.129c-7.293-0.067-13.948-0.569-21.123-1.994c-0.179-0.036-0.361-0.054-0.541-0.087&#10;&#9;&#9;&#9;c4.067-1.786,6.867-5.728,5.857-10.712c-1.253-6.181-7.349-11.404-11.792-15.463c-2.448-2.236-5.103-4.289-8.226-5.488&#10;&#9;&#9;&#9;c-0.109-0.042-0.215-0.063-0.324-0.101c-0.121-0.241-0.287-0.466-0.508-0.66c-4.795-4.216-6.975-9.832-10.205-15.166&#10;&#9;&#9;&#9;c-2.137-3.526-5.154-6.375-7.231-9.943c-2.406-4.132-4.61-8.429-6.537-12.793c-1.885-4.272-4.604-11.8-10.292-11.806&#10;&#9;&#9;&#9;c-2.552-0.003-4.751,1.698-7.043,2.562c-3.3,1.242-6.714,1.346-9.859,3.084c-1.62,0.894-2.12,3.539-0.62,4.809&#10;&#9;&#9;&#9;c4.719,3.993,6.435,10.985,10.287,15.9c1.827,2.33,2.897,4.934,4.056,7.56c-0.192,0.015-0.385,0.026-0.579,0.047&#10;&#9;&#9;&#9;c-1.635,0.178-3.281,0.674-4.685,1.461c-1.516-1.866-3.455-3.393-5.943-4.36c-3.615-1.405-6.865-0.715-10.55,0.014&#10;&#9;&#9;&#9;c-5.456,1.079-11.899,0.98-17.409-0.005c-4.698-0.84-8.782-3.488-13.116-5.328c-4.585-1.947-9.284-3.044-14.113-4.213&#10;&#9;&#9;&#9;c-2.642-0.639-5.259-1.382-7.884-2.105c0.228-0.249,0.427-0.531,0.589-0.851c2.803-5.56,1.022-11.99,0.006-17.921&#10;&#9;&#9;&#9;c-0.866-5.056-1.952-10.698-4.57-15.208c-1.177-2.03-2.761-3.631-4.583-4.945c0.841-0.994,1.704-1.959,2.558-2.982&#10;&#9;&#9;&#9;c1.863-2.232,2.837-5.933,5.619-7.171c-0.007-0.016-0.014-0.033-0.021-0.049c0.86-0.537,1.34-1.546,1.263-2.542&#10;&#9;&#9;&#9;c2.588,0.092,5.191,0.117,7.805,0.148c10.891,0.131,19.255-1.866,29.027-6.581c8.456-4.079,17.431-8.129,24.591-14.31&#10;&#9;&#9;&#9;c1.34-1.155,2.606-2.397,3.97-3.524c0.86-0.709,2.594-1.845,2.538-1.854c2.85,0.474,6.456,4.97,9.404,6.195&#10;&#9;&#9;&#9;c8.11,3.374,15.457,1.86,22.216-3.759c5.901-4.904,8.527-13.875,5.421-21.092c-1.473-3.424-4.051-5.708-6.95-7.949&#10;&#9;&#9;&#9;c-2.344-1.813-4.688-3.817-7.374-5.106c-0.474-0.228-1.403-0.451-2.312-0.691c1.518-2.188,3.196-4.27,4.513-6.606&#10;&#9;&#9;&#9;c2.345-4.158,4.575-8.547,6.134-13.067c2.956-8.575,4.808-18.419,3.132-27.43c-0.86-4.627-2.503-21.258-8.672-26.212&#10;&#9;&#9;&#9;c2.636-1.881,4.487-4.388,4.569-9.076c0.011-0.623-0.09-1.171-0.236-1.686c3.258-1.68,3.346-6.871,3.233-10.136&#10;&#9;&#9;&#9;c-0.063-1.81-0.198-3.483-0.435-5.076c1.437,4.287,1.883,9.045,2.315,13.42c0.242,2.461,4.328,3.558,4.745,0.643&#10;&#9;&#9;&#9;c1.119-7.836,4.134-14.168,1.124-22.103c-2.698-7.112-8.891-12.914-14.464-17.845c-5.177-4.58-12.763-9.479-20.492-11.448&#10;&#9;&#9;&#9;c-1.388-2.579-2.319-5.562-4.433-7.607c-0.997-0.965-2.542-1.296-3.507-2.142c-1.177-1.033-1.699-2.727-2.977-3.677&#10;&#9;&#9;&#9;c-2.083-1.546-5.483-1.717-7.922-2.37c-3.421-0.913-6.716-1.51-10.277-1.281c-6.981,0.446-13.839,2.767-20.382,5.091&#10;&#9;&#9;&#9;c-1.42,0.505-3.127,1.243-4.947,1.964c-0.534-0.474-1.22-0.764-2.033-0.701c-2.837,0.219-5.644-0.259-8.46-0.679&#10;&#9;&#9;&#9;c0.16-0.45,0.223-0.935,0.205-1.412c1.207,0.085,2.455,0.028,3.784-0.244c1.09-0.224,0.99-1.573,0.277-2.119&#10;&#9;&#9;&#9;c-5.639-4.317-9.441-9.823-16.172-12.657c-7.648-3.22-14.364-7.302-22.976-6.122c-6.54,0.897-12.272,4.362-17.059,8.8&#10;&#9;&#9;&#9;c-0.38,0.01-0.755,0.004-1.142,0.038c-2.782,0.25-5.148,1.505-7.759,2.331c-2.732,0.865-5.645,0.757-8.296,1.876&#10;&#9;&#9;&#9;c-2.409,1.018-3.991,2.79-5.865,4.528c-2.354,2.182-5.1,3.855-7.631,5.836c-5.212,4.077-9.388,8.93-13.09,14.396&#10;&#9;&#9;&#9;c-6.541,9.656-12.334,22.121-10.315,34.073c0.764,4.526,3.228,9.489,6.664,13.599c-0.043,0.099-0.082,0.198-0.127,0.297&#10;&#9;&#9;&#9;c-2.051,4.536-4.505,8.855-6.996,13.159c-4.411,7.62-7.974,15.498-8.544,24.412c-0.545,8.547,3.696,16.897,10.27,22.333&#10;&#9;&#9;&#9;c0.245,4.36,1.202,8.63,3.291,12.56c2.041,3.84,5.515,7.271,9.479,9.112c-1.38,3.728-3.09,7.33-4.176,11.161&#10;&#9;&#9;&#9;c-0.228,0.802-0.153,1.572,0.11,2.26c-5.18,0.883-9.095,4.054-13.467,6.94c-6.717,4.432-12.421,9.591-18.416,14.924&#10;&#9;&#9;&#9;c-5.699,5.071-11.886,9.317-16.913,15.126c-5.035,5.818-9.359,12.313-13.135,19.004c-7.801,13.822-12.129,29.153-16.787,44.223&#10;&#9;&#9;&#9;c-4.943,15.993-7.384,32.032-8.481,48.716c-0.073,1.105-0.2,2.193-0.346,3.278c0.026-5.55-0.684-11.176-0.785-16.719&#10;&#9;&#9;&#9;c-0.247-13.488-4.171-26.52-6.322-39.758c-0.423-2.604-3.348-3.446-5.528-3.138c-3.724,0.526-6.283,3.034-10.004,3.614&#10;&#9;&#9;&#9;c-4.233,0.66-8.31,1.63-12.382,3.006c-5.349,1.807-9.801,3.939-10.357,10.068c-0.741,8.162-0.672,17.549,0.867,25.613&#10;&#9;&#9;&#9;c0.941,4.936,2.476,9.703,2.789,14.745c0.277,4.463,0.659,8.816,1.239,13.254c1.21,9.231,1.443,18.771,3.197,27.883&#10;&#9;&#9;&#9;c1.769,9.184,1.807,18.406,5.093,27.276c1.675,4.52,3.062,8.507,3.481,13.335c0.338,3.895,1.095,7.555,2.943,11.043&#10;&#9;&#9;&#9;c3.114,5.876,8.627,10.328,15.195,11.617c4.056,0.795,7.77-0.003,11.776-0.646c4.066-0.653,7.904-0.277,11.957-0.365&#10;&#9;&#9;&#9;c3.445-0.075,6.69-1.461,8.447-3.737c4.991,1.044,10.108,0.033,15.181,1.291c6.288,1.558,10.639,0.783,16.857-0.471&#10;&#9;&#9;&#9;c8.063-1.626,16.447,0.643,24.669-1.154c18.16-3.967,37.576,1.114,55.942-1.163c3.76-0.465,7.333-2.244,11.131-1.926&#10;&#9;&#9;&#9;c3.765,0.315,7.218,2.014,11.081,1.985c5.113-0.037,10.318-1.669,14.868-4.181c3.68,1.805,8.533,0.874,9.455-4.246&#10;&#9;&#9;&#9;c0.451-2.511,0.338-4.663,0.387-7.169c0.052-2.68,0.867-4.877,1.341-7.505c0.991-5.503-0.177-11.064-0.517-16.568&#10;&#9;&#9;&#9;c-0.416-6.712-0.219-14.808-2.661-21.516c9.187,1.526,18.463,2.306,27.862,1.845c-1.677,3.445-1.942,7.624-0.925,11.493&#10;&#9;&#9;&#9;c1.2,4.56,2.821,9.043,4.056,13.605c1.039,3.84,3.166,6.754,7.309,7.217c2.943,0.329,6.075,0.069,9.147-0.025&#10;&#9;&#9;&#9;c-1.728,7.766-2.602,18.052,2.98,22.524c5.598,4.487,13.105,0.132,19.252-0.106c9.698-0.377,19.482,0.625,29.176,0.826&#10;&#9;&#9;&#9;c9.563,0.199,18.785-1.771,28.302-2.116c9.817-0.356,19.503,0.429,29.29,0.802c8.31,0.317,16.349-2.23,24.688-2.069&#10;&#9;&#9;&#9;c9.124,0.176,18.011-0.873,27.03-2.255c10.92-1.672,21.909-0.073,32.842-1.263c5.07-0.552,10.121-1.275,15.191-1.816&#10;&#9;&#9;&#9;c4.398-0.468,8.323,1.088,12.778,0.197c1.74-0.349,3.566-2.129,3.889-3.89c1.142-6.226,1.16-12.599,0.633-18.898&#10;&#9;&#9;&#9;c2.914-0.242,5.798-0.752,8.518-1.52c3.849-1.087,4.678-5.995,2.25-8.498C509.503,451.024,509.58,450.902,509.629,450.757z&#10;&#9;&#9;&#9; M361.547,418.341c13.575,0.688,27.372,2.592,40.868,0.22c13.907-2.444,27.961-4.496,41.704-7.764&#10;&#9;&#9;&#9;c6.621-1.573,13.536-2.788,19.961-5.065c4.386-1.555,7.761-4.351,12.053-5.283c-1.536,2.779-4.513,5.725-6.174,7.169&#10;&#9;&#9;&#9;c-2.886,2.506-6.377,4.049-9.158,6.67c-1.534,1.446-1.786,1.727-3.769,2.484c-1.259,0.481-2.524,0.674-3.753,1.302&#10;&#9;&#9;&#9;c-3.304,1.687-6.033,4.638-9.315,6.315c-0.399-0.002-0.802-0.011-1.201-0.01c-9.307,0.011-18.647-0.401-27.876,0.926&#10;&#9;&#9;&#9;c-5.035,0.724-10,0.686-15.034,1.213c-5.154,0.539-10.167,1.503-15.367,1.53c-20.085,0.105-40.688,2.211-60.595-0.715&#10;&#9;&#9;&#9;c-0.053-0.007-0.108-0.014-0.161-0.021c-0.012-0.017-0.025-0.036-0.036-0.052c2.303-0.928,4.465-2.063,6.275-3.561&#10;&#9;&#9;&#9;c2.733-2.262,3.04-4.584,3.636-7.853c0.173-0.945,0.308-1.681,0.519-2.268c2.717,0.497,5.513,0.674,8.455,1.236&#10;&#9;&#9;&#9;C348.976,416.035,354.998,418.01,361.547,418.341z M289.725,343.42c-0.72-1.789-1.539-3.372-2.564-4.821&#10;&#9;&#9;&#9;c1.72-0.411,3.485-0.703,5.129-1.295c4.19-1.51,4.849-3.076,7.504,1.575c3.765,6.592,6.367,13.791,10.596,20.169&#10;&#9;&#9;&#9;c3.393,5.118,6.343,9.863,9.252,15.267c0.777,1.443,1.579,2.891,2.502,4.188c-0.438-0.027-0.877-0.063-1.321-0.121&#10;&#9;&#9;&#9;c-2.151-0.282-3.959-1.342-6.098-1.697c-1.404-0.232-3.338,0.407-4.569-0.014c-3.262-1.111-3.091-4.776-4.357-7.451&#10;&#9;&#9;&#9;c-1.299-2.742-3.304-4.533-5.735-5.494c-1.121-2.996-2.378-6.063-3.827-8.715C294.047,350.996,291.473,347.765,289.725,343.42z&#10;&#9;&#9;&#9; M293.514,402.453c1.242-7.37,0.735-16.298,0.099-23.754c-0.216-2.536-0.659-5.158-1.443-7.635&#10;&#9;&#9;&#9;c2.564-0.495,5.123,0.054,6.385,2.522c1.651,3.223,2,6.508,5.059,8.901c3.776,2.952,9.356,2.181,13.774,3.273&#10;&#9;&#9;&#9;c2.538,0.627,5.069,0.393,7.64,0.469c4.769,0.139,6.439,2.319,9.05,5.917c1.19,1.64,7.511,8.824,6.31,9.771&#10;&#9;&#9;&#9;c-0.757,0.596-4.899,0.052-6.21,0.479c-2.257,0.733-3.962,2.329-5.344,4.2c-0.63,0.851-1.048,1.763-1.356,2.699&#10;&#9;&#9;&#9;c-0.673,0.211-0.981,1.103-0.444,1.648c-0.722,3.306-0.742,6.682-3.973,8.694c-2.842,1.769-6.369,2.138-9.415,3.34&#10;&#9;&#9;&#9;c-1.725,0.68-3.164,1.775-4.558,2.944c-4.761-0.23-9.525-0.255-14.104-0.059c-4.816,0.207-9.584,1.52-14.095,3.173&#10;&#9;&#9;&#9;c-0.701,0.257-1.377,0.528-2.042,0.794c-0.208,0.017-0.417,0.04-0.625,0.052c4.339-2.899,7.348-6.826,7.064-12.025&#10;&#9;&#9;&#9;C289.48,413.843,292.418,408.951,293.514,402.453z M296.088,121.208c-0.351,0.106-0.704,0.209-1.054,0.325&#10;&#9;&#9;&#9;c-0.515-0.136-1.045-0.236-1.581-0.32c0-0.447-0.073-0.898-0.203-1.333C294.204,120.311,295.15,120.751,296.088,121.208z&#10;&#9;&#9;&#9; M287.602,117.325c-0.109,0.037-0.216,0.074-0.325,0.11c-0.799-0.51-1.693-0.075-2.124,0.679&#10;&#9;&#9;&#9;c-4.874,1.467-9.792,2.37-14.871,3.191c-0.027,0.004-0.053,0.011-0.08,0.015c3.552-1.422,7.1-2.865,10.613-4.353&#10;&#9;&#9;&#9;c0.959-0.406,2.079-0.882,3.206-1.447c0.161,0.09,0.32,0.189,0.481,0.273C285.522,116.333,286.559,116.837,287.602,117.325z&#10;&#9;&#9;&#9; M272.492,156.652c2.02-0.665,4.051-1.289,6.087-1.897c0.019-0.005,0.037-0.01,0.057-0.014c0.176-0.043,0.345-0.098,0.521-0.142&#10;&#9;&#9;&#9;c-2.803,1.111-5.476,2.22-7.897,3.114c-1.603,0.592-3.195,1.218-4.784,1.854c-1.714,0.448-3.431,0.881-5.144,1.332&#10;&#9;&#9;&#9;C265.017,159.398,268.705,157.899,272.492,156.652z M266.626,113.837c0.04-0.147,0.08-0.293,0.115-0.442&#10;&#9;&#9;&#9;c0.689-0.13,1.378-0.283,2.067-0.4C268.078,113.279,267.353,113.555,266.626,113.837z M277.796,95.504&#10;&#9;&#9;&#9;c0.367,0.11,0.586,0.156,0.719,0.169c0.115,0.093,0.254,0.2,0.451,0.343c1.001,0.724,1.836,1.573,2.868,2.257&#10;&#9;&#9;&#9;c1.388,0.92,2.877,1.511,4.176,2.512c-0.839,0.066-1.665,0.194-2.482,0.366c-0.215-1.293-1.056-2.453-2.496-2.764&#10;&#9;&#9;&#9;c-2.322-0.502-4.818-0.336-7.332,0.073c-3.582-1.78-7.421-2.852-11.584-2.307c-2.15,0.281-4.281,0.659-6.417,1.024&#10;&#9;&#9;&#9;c0-0.344-0.058-0.686-0.143-1.019C263.144,93.809,270.054,93.178,277.796,95.504z M250.316,119.142&#10;&#9;&#9;&#9;c1.368-0.818,3.427-2.265,5.541-3.328c0.456-0.109,0.913-0.218,1.369-0.327c-0.501,0.893-0.997,1.737-1.297,2.365&#10;&#9;&#9;&#9;c-2.623,0.947-5.271,1.862-7.949,2.742C248.753,120.101,249.529,119.613,250.316,119.142z M224.976,170.197&#10;&#9;&#9;&#9;c0.152-0.106,0.307-0.209,0.458-0.315c-0.167,0.211-0.34,0.427-0.51,0.642C224.942,170.415,224.96,170.306,224.976,170.197z&#10;&#9;&#9;&#9; M220.539,101.125c-0.072,0.048-0.142,0.1-0.215,0.15c-2.866,0.745-5.716,1.568-8.58,2.465c-3.344,1.048-6.625,1.748-9.958,2.439&#10;&#9;&#9;&#9;c0.115-0.71,0.181-1.401,0.183-2.064c4.539-0.75,9.045-1.667,13.584-2.416C217.177,101.492,218.851,101.31,220.539,101.125z&#10;&#9;&#9;&#9; M223.997,114.048c-0.02,0.017-0.04,0.036-0.059,0.053c-1.691,0.427-3.384,0.837-5.088,1.192c-0.58,0.121-1.161,0.228-1.743,0.33&#10;&#9;&#9;&#9;c0.072-0.067,0.145-0.134,0.218-0.2C219.557,114.99,221.782,114.522,223.997,114.048z M213.921,154.391&#10;&#9;&#9;&#9;c-2.25,1.853-4.468,3.744-6.809,5.469c-2.103,1.55-4.168,2.819-5.907,4.6c-0.319-0.13-0.639-0.262-0.96-0.408&#10;&#9;&#9;&#9;c-1.341-0.609-2.646-1.259-3.943-1.889C202.268,159.779,208.121,157.153,213.921,154.391z M196.111,135.43&#10;&#9;&#9;&#9;c-0.31,0.261-0.635,0.508-0.956,0.758c3.394-3.143,6.769-6.302,10.135-9.472c0.364,0.025,0.743,0.002,1.137-0.074&#10;&#9;&#9;&#9;c1.947-0.378,3.883-0.768,5.822-1.153c-1.816,1.709-3.619,3.434-5.384,5.202c-0.78-0.648-1.853-0.935-3.118-0.533&#10;&#9;&#9;&#9;C200.524,131.183,198.642,133.329,196.111,135.43z M205.582,79.101c1.263,0.55,2.541,1.06,3.821,1.556&#10;&#9;&#9;&#9;c-2.809-0.397-5.645-0.628-8.502-0.637c-3.352-0.01-7.648-0.15-11.96,0.12c-0.001,0-0.001-0.001-0.003-0.001&#10;&#9;&#9;&#9;C194.17,77.313,199.535,76.468,205.582,79.101z M189.802,98.172c0.955-1.191,1.158-2.768,0.689-4.041&#10;&#9;&#9;&#9;c4.967,0.663,10.024,0.745,15.206,1.173c1.587,0.131,3.16,0.277,4.729,0.419c-1.205,0.209-2.409,0.423-3.613,0.654&#10;&#9;&#9;&#9;c-2.992,0.489-5.986,0.961-8.987,1.404c-2.113-0.711-4.265-0.063-6.266,1.202c-1.025,0.257-2.048,0.526-3.072,0.782&#10;&#9;&#9;&#9;C188.925,99.235,189.373,98.709,189.802,98.172z M187.494,154.326c2.052-2.228,4.301-4.234,6.602-6.177&#10;&#9;&#9;&#9;c0.527,0.785,1.299,1.431,2.176,1.805c-1.505,0.836-3.016,1.667-4.536,2.498c-1.866,1.022-3.649,2.095-5.426,3.138&#10;&#9;&#9;&#9;C186.705,155.169,187.103,154.75,187.494,154.326z M187.928,168.129c7.076,1.713,13.636,5.832,18.832,10.615&#10;&#9;&#9;&#9;c2.208,2.032,4.899,0.421,5.279-1.806c1.551-0.451,3.07-1.038,4.555-1.737c-0.538,0.711-1.067,1.437-1.562,2.213&#10;&#9;&#9;&#9;c-2.631,4.116-3.578,8.654-7.419,11.951c-3.41,2.928-12.806,9.369-7.557,14.636c0.654,0.657,1.831,0.858,2.635,0.339&#10;&#9;&#9;&#9;c0.218-0.141,0.422-0.304,0.628-0.463c2.752,4.182,3.514,8.559,9.414,9.411c6.899,0.997,13.871-3.215,18.621-7.889&#10;&#9;&#9;&#9;c4.939-4.862,8.035-11.635,10.421-18.049c1.155-3.102,1.96-6.308,2.809-9.503c1.554,0.95,3.368,1.603,4.926,1.96&#10;&#9;&#9;&#9;c8.162,1.879,17.979-0.338,26.134-1.577c10.004-1.52,20.458-2.088,29.034-7.938c0.411-0.281,0.825-0.545,1.241-0.799&#10;&#9;&#9;&#9;c0.212,0.135,0.44,0.251,0.701,0.327c3.427,0.998,4.748,9.279,4.989,12.109c0.492,5.766,2.23,11.494,1.892,17.29&#10;&#9;&#9;&#9;c-0.423,7.248-2.376,15.032-5.532,21.563c-2.814,5.822-7.145,10.721-9.85,16.498c-1.016,2.171-0.725,4.092,0.763,5.917&#10;&#9;&#9;&#9;c2.72,3.337,7.109,2.479,10.627,4.58c3.205,1.915,7.959,5.029,8.835,8.915c1.215,5.387-2.004,9.614-6.527,11.932&#10;&#9;&#9;&#9;c-5.3,2.716-9.502,1.38-14.012-2.15c-6.188-4.844-10.122-7.048-16.936-1.852c-7.008,5.344-13.798,9.771-21.791,13.683&#10;&#9;&#9;&#9;c-2.809,1.374-5.683,2.899-8.611,4.251c-0.082-0.115-0.152-0.24-0.254-0.339c-1.807-1.771-2.764-4.59-4.099-6.717&#10;&#9;&#9;&#9;c-1.661-2.646-3.565-5.314-4.851-8.168c-1.472-3.265-1.443-6.524-1.946-9.98c-0.45-3.097-1.518-6.061-2.559-9.003&#10;&#9;&#9;&#9;c-0.625-1.765-2.896-1.711-3.541,0c-3.374,8.939-3.732,16.874,0.872,25.551c2.083,3.925,4.689,9.034,8.516,11.571&#10;&#9;&#9;&#9;c-4.636,1.148-9.473,0.982-14.213,0.866c-10.879-0.268-21.105-0.519-30.471-6.773c-3.682-2.458-6.905-5.619-10.074-8.696&#10;&#9;&#9;&#9;c-2.863-2.782-3.604-6.458-6.9-9.001c-1.457-1.124-3.409-2.014-4.459-3.604c-1.21-1.833-1.489-4.821-2.322-6.886&#10;&#9;&#9;&#9;c-1.511-3.751-4.907-9.586-5.096-13.67c-0.042-0.921-1.567-1.25-1.708-0.231c-0.49,3.539,1.267,6.438,0.695,10.047&#10;&#9;&#9;&#9;c-0.574,3.628-1.176,7.177-0.388,10.895c0.763,3.609,2.581,6.235,4.959,8.962c2.639,3.028,2.703,6.748,5.443,9.737&#10;&#9;&#9;&#9;c6.041,6.584,13.816,12.659,22.118,16.004c3.797,1.53,7.667,2.418,11.589,2.946c-1.248,1.119-2.338,2.49-3.211,3.685&#10;&#9;&#9;&#9;c-1.321,1.808-3.143,3.122-4.443,4.951c-0.211,0.298-0.392,0.595-0.55,0.894c-4.771-2.125-9.448-4.298-13.974-7.002&#10;&#9;&#9;&#9;c-11.683-6.981-22.944-13.843-33.06-23.07c-2.207-2.012-4.649-3.988-6.609-6.24c-2.392-2.75-3.129-6.186-4.391-9.508&#10;&#9;&#9;&#9;c-1.427-3.759-3.659-6.677-6.142-9.526c0.117-0.101,0.236-0.197,0.346-0.319c0.688-0.759,1.326-1.547,1.944-2.348&#10;&#9;&#9;&#9;c0.717-0.349,1.315-0.946,1.544-1.711c0.092-0.308,0.219-0.592,0.331-0.887c1.431-2.135,2.708-4.369,3.93-6.646&#10;&#9;&#9;&#9;c0.703-1.086,1.346-2.216,1.832-3.457c0.62-0.35,1.232-0.756,1.828-1.238c0.886-0.716,0.756-2.271,0-3.007&#10;&#9;&#9;&#9;c-0.283-0.276-0.571-0.538-0.863-0.79c0.401,0.043,0.81-0.032,1.173-0.263c3.833-2.443,2.999-7.003,3.995-10.978&#10;&#9;&#9;&#9;c1.552-6.202,2.385-12.625,4.602-18.632c0.476-1.29-0.461-2.383-1.594-2.761c0.418-1.025,0.855-2.038,1.312-3.035&#10;&#9;&#9;&#9;c0.153,1.502,0.502,2.983,1.145,4.419c2.088,4.662,6.617,7.215,10.731,9.878c4.634,3.001,9.62,5.779,15.276,4.135&#10;&#9;&#9;&#9;c4.682-1.361,8.763-4.549,10.04-9.382c0.519-1.97-1.425-4.386-3.566-3.566c-2.707,1.036-5.655,2.341-8.423,3.066&#10;&#9;&#9;&#9;c-3.551,0.931-6.141-1.028-9.16-2.792c-3.494-2.043-6.581-3.396-6.955-7.798c-0.278-3.28,1.126-7.473,1.996-10.651&#10;&#9;&#9;&#9;C172.827,174.325,179.599,166.113,187.928,168.129z M214.956,196.413c-2.115,3.04-3.827,5.737-3.721,9.398&#10;&#9;&#9;&#9;c-2.017-0.601-3.92-1.995-6.237-3.468c1.493-1.575,2.823-3.425,4.407-4.829c0.964-0.852,1.948-1.656,2.904-2.476&#10;&#9;&#9;&#9;C212.982,195.861,213.943,196.429,214.956,196.413z M138.211,220.566c0.578-0.242,1.107-0.602,1.514-1.103&#10;&#9;&#9;&#9;c0.823,0.051,1.65,0.068,2.484,0.028c-0.623,1.211-1.153,2.438-1.514,3.677C139.803,222.415,138.967,221.565,138.211,220.566z&#10;&#9;&#9;&#9; M144.654,128.301c0.179-0.207,0.365-0.407,0.547-0.611c6.364-2.793,13.042-9.918,16.283-12.98&#10;&#9;&#9;&#9;c2.421-2.284,4.803-4.528,7.112-6.835c-1.76,1.838-3.539,3.665-5.322,5.515c-5.2,5.393-10.784,10.208-16.55,14.982&#10;&#9;&#9;&#9;c-2.11,1.746-4.007,3.483-5.908,5.438c-0.051,0.052-0.108,0.103-0.16,0.155C141.881,132.03,143.111,130.078,144.654,128.301z&#10;&#9;&#9;&#9; M141.792,121.846c2.386-6.124,9.646-11.934,14.022-15.211c0.127-0.095,0.257-0.195,0.385-0.292&#10;&#9;&#9;&#9;c-3.767,4.125-7.508,8.299-11.37,12.43C143.988,119.672,142.937,120.707,141.792,121.846z M148.434,228.4&#10;&#9;&#9;&#9;c-0.503-0.359-1.01-0.696-1.52-1.025c0.712-1.071,1.358-2.186,1.952-3.328c0.019,1.096-0.035,2.177-0.422,3.221&#10;&#9;&#9;&#9;C148.296,227.663,148.316,228.049,148.434,228.4z M146.701,212.153c-0.565,0.899-1.168,1.819-1.771,2.753&#10;&#9;&#9;&#9;c-0.461-0.649-0.949-1.262-1.472-1.822c0.972-1.556,1.744-3.223,2.569-4.863c1.083-2.152,2.139-4.328,3.216-6.491&#10;&#9;&#9;&#9;C148.481,205.141,147.694,208.685,146.701,212.153z M149.917,170.839c0.558-2.113,1.079-4.236,1.615-6.356&#10;&#9;&#9;&#9;c0.241-0.172,0.482-0.348,0.721-0.524c0.025,0.197,0.066,0.386,0.121,0.573c-0.526,1.417-1.04,2.82-1.587,4.143&#10;&#9;&#9;&#9;c-0.267,0.648-0.508,1.32-0.763,1.979C149.988,170.716,149.951,170.777,149.917,170.839z M162.629,165.924&#10;&#9;&#9;&#9;c0.85-0.4,1.696-0.882,2.553-1.431c2.453-1.572,5.007-2.952,7.555-4.34c-0.636,1.22-1.019,2.466-0.992,3.707&#10;&#9;&#9;&#9;c-3.128,2.627-5.608,6.078-7.456,9.845c0.301-1.145,0.584-2.299,0.832-3.469C165.551,168.225,164.278,166.462,162.629,165.924z&#10;&#9;&#9;&#9; M174.599,135.757c0.134-0.218,0.268-0.435,0.403-0.653c1.565-1.592,3.197-3.21,4.852-4.863c-0.369,0.668-0.732,1.335-1.091,1.995&#10;&#9;&#9;&#9;C177.371,133.403,175.983,134.578,174.599,135.757z M181.756,92.145c0.611,0.21,1.222,0.407,1.834,0.584&#10;&#9;&#9;&#9;c-2.132,0.962-3.93,2.664-5.521,4.486C179.385,95.603,180.693,93.928,181.756,92.145z M181.768,107.441&#10;&#9;&#9;&#9;c0.349,0.096,0.73,0.153,1.168,0.124c0.078-0.005,0.156-0.02,0.235-0.026c-1.212,1.56-2.386,3.142-3.49,4.761&#10;&#9;&#9;&#9;c-0.729,0.674-1.457,1.336-2.197,1.953c-5.656,4.719-10.541,10.355-15.641,15.651c-2.219,2.304-12.007,13.603-17.988,16.679&#10;&#9;&#9;&#9;c2.309-3.583,5.662-6.364,8.736-9.493c4.476-4.558,8.826-9.225,13.398-13.688C171.303,118.212,176.685,112.939,181.768,107.441z&#10;&#9;&#9;&#9; M141.036,113.03c5.046-8.234,11.878-13.474,18.678-20.041c2.108-2.036,3.015-3.994,5.973-5.003c1.626-0.555,3.3-0.794,4.92-1.438&#10;&#9;&#9;&#9;c-0.498,2.113-1.077,4.976-1.332,5.122c-0.701,0.401-0.868,1.119-0.67,1.74c-0.353,0.343-0.71,0.681-1.059,1.027&#10;&#9;&#9;&#9;c-0.526,0.189-1.07,0.412-1.67,0.712c-4.987,2.5-9.719,5.528-14.281,8.727c-3.593,2.521-7.894,6.088-11.194,10.209&#10;&#9;&#9;&#9;C140.613,113.73,140.824,113.375,141.036,113.03z M137.033,144.134c-0.103,0.184-0.183,0.383-0.281,0.57&#10;&#9;&#9;&#9;c-0.1-0.14-0.189-0.284-0.286-0.425C136.653,144.238,136.842,144.19,137.033,144.134z M135.382,124.325&#10;&#9;&#9;&#9;c-0.052,0.325-0.114,0.651-0.142,0.978c-0.078,0.894,0.463,1.742,1.143,2.283c-1.006,1.186-1.948,2.412-2.757,3.655&#10;&#9;&#9;&#9;C133.933,128.915,134.555,126.592,135.382,124.325z M126.576,185.051c0.064-0.239,0.121-0.48,0.189-0.716&#10;&#9;&#9;&#9;c1.584-5.493,8.569-15.657,11.132-24.615c0.558,0.304,1.126,0.574,1.698,0.824c-0.005,0.012-0.012,0.023-0.019,0.036&#10;&#9;&#9;&#9;c-1.586,2.503-3.108,5.023-4.529,7.691C132.143,173.721,129.461,179.469,126.576,185.051z M134.115,191.761&#10;&#9;&#9;&#9;c-1.13-0.503-2.43-0.48-3.409,0.242c0.485-1.048,0.966-2.096,1.489-3.119c2.425-4.742,5.102-9.343,7.596-14.049&#10;&#9;&#9;&#9;c0.894-1.687,1.793-3.357,2.711-5.014c-0.549,2.096-1.158,4.176-1.921,6.21C138.577,181.369,135.875,186.343,134.115,191.761z&#10;&#9;&#9;&#9; M55.079,489.938c-4.088-0.073-7.988,0.641-12.001,1.283c-7.727,1.236-13.697-2.096-15.54-10.078&#10;&#9;&#9;&#9;c-0.87-3.765-0.853-7.508-2.063-11.241c-1.455-4.49-3.556-8.658-4.635-13.284c-2.017-8.654-3.041-18.287-3.756-27.117&#10;&#9;&#9;&#9;c-0.701-8.664-2.701-17.231-3.575-25.889c-0.449-4.464-0.433-8.809-1.312-13.228c-0.975-4.898-2.471-9.605-2.761-14.623&#10;&#9;&#9;&#9;c-0.265-4.576,0.057-9.221,0.006-13.806c-0.043-3.995-0.202-4.263,3.763-5.645c4.095-1.427,8.069-2.214,12.333-2.797&#10;&#9;&#9;&#9;c2.02-0.276,3.698-1.182,5.367-2.053c1.101,6.237,2.297,12.455,3.139,18.741c0.956,7.138,0.66,14.474,2.007,21.528&#10;&#9;&#9;&#9;c1.105,5.784,1.786,11.667,2.985,17.408c0.776,3.716,1.948,7.254,4.615,9.795c0.142,8.693-0.053,17.417-0.313,26.105&#10;&#9;&#9;&#9;c-0.197,6.55,1.459,12.301,2.284,18.727c0.971,7.556,2.706,14.633,6.733,21.184c1.075,1.749,2.246,3.467,3.549,5.066&#10;&#9;&#9;&#9;C55.533,489.972,55.239,489.941,55.079,489.938z M243.141,424.502c-7.16,0.23-13.865-1.215-20.964-1.739&#10;&#9;&#9;&#9;c-7.145-0.528-15.338-2.534-22.11-4.831c-6.092-2.067-12.343-3.832-18.387-5.965c-6.925-2.445-12.195-5.604-17.775-10.14&#10;&#9;&#9;&#9;c-2.482-2.019-5.451-3.15-8.043-4.983c-3.14-2.219-5.678-5.323-7.926-8.414c-4.041-5.558-8.555-10.212-13.072-15.348&#10;&#9;&#9;&#9;c-2.005-2.28-6.017,0.746-4.25,3.279c4.716,6.758,8.314,14.307,13.34,20.839c4.845,6.294,11.544,10.26,17.378,15.453&#10;&#9;&#9;&#9;c5.326,4.741,13.529,8.118,20.296,10.239c7.906,2.48,15.424,5.801,23.458,7.87c3.665,0.944,7.341,1.822,11.027,2.613&#10;&#9;&#9;&#9;c0.23,3.373,0.66,6.736,0.641,10.13c-0.027,4.719-0.522,9.426-0.613,14.143c-0.092,4.715,0.49,9.415-0.884,13.985&#10;&#9;&#9;&#9;c-1.04,3.458-1.336,6.524-1.813,9.86c-2.059,0.259-4.199,0.912-6.656,1.56c-6.827,1.801-12.849-1.751-19.721-0.873&#10;&#9;&#9;&#9;c-3.123,0.398-5.993,1.599-9.127,1.948c-3.295,0.366-6.711,0.116-10.011-0.011c-7.972-0.306-15.922-0.353-23.899-0.375&#10;&#9;&#9;&#9;c-6.465-0.019-13.263-0.698-19.651,0.471c-3.525,0.644-6.636,1.497-10.247,1.467c-4.096-0.035-8.209-0.607-12.304-0.481&#10;&#9;&#9;&#9;c-5.688,0.176-10.035,2.693-15.697,1.124c-3.056-0.847-5.813-1.291-9.014-1.252c-2.675,0.033-5.327,0.58-7.855-0.648&#10;&#9;&#9;&#9;c-10.544-5.122-10.741-21.772-13.185-31.364c-1.641-6.443-0.649-14.043-0.733-20.657c-0.095-7.462-1.168-15.469,0.244-22.808&#10;&#9;&#9;&#9;c2.787-14.487,1.829-29.375,4.98-43.916c2.978-13.743,7.388-27.734,12.297-40.91c5.507-14.778,13.912-29.848,25.744-40.476&#10;&#9;&#9;&#9;c6.161-5.534,12.171-11.403,18.512-16.715c3.163-2.649,6.523-5.002,9.764-7.542c2.68-2.101,4.956-5.212,8.051-6.703&#10;&#9;&#9;&#9;c1.061,3.155,2.484,6.219,3.431,9.461c1.425,4.878,2.91,9.161,6.359,12.998c8.511,9.467,18.581,17.441,28.898,24.824&#10;&#9;&#9;&#9;c4.862,3.479,9.75,6.919,14.581,10.443c2.507,1.828,4.914,3.636,7.703,5.014c2.224,1.1,4.94,1.798,6.947,3.273&#10;&#9;&#9;&#9;c3.117,2.289,3.769,6.623,4.616,10.211c1.284,5.436,1.074,12.094,4.122,16.858c-0.49-0.1-0.98-0.203-1.472-0.292&#10;&#9;&#9;&#9;c-5.64-1.018-11.387-1.404-17.06-2.216c-4.905-0.703-7.603-2.59-11.619-5.077c-1.827-1.133-3.748-1.432-5.583-2.371&#10;&#9;&#9;&#9;c-1.761-0.902-3.786-2.743-5.395-3.921c-4.918-3.597-7.565-8.011-11.437-12.494c-3.317-3.838-8.195-6.596-12.625-8.92&#10;&#9;&#9;&#9;c-0.933-0.49-1.811,0.659-1.112,1.442c3.582,4.01,7.41,8.022,9.865,12.844c2.059,4.042,3.912,7.424,7.077,10.726&#10;&#9;&#9;&#9;c5.524,5.763,11.92,9.68,18.265,14.33c7.558,5.541,17.669,5.257,26.489,7.034c9.599,1.933,19.943,4.83,29.194,8.015&#10;&#9;&#9;&#9;c8.122,2.797,14.494,5.724,23.295,5.551c4.623-0.092,9.201-0.028,13.693-1.237c2.497-0.672,4.068-1.725,6.574-0.71&#10;&#9;&#9;&#9;c2.211,0.897,3.207,2.591,3.996,4.768c2.386,6.576,0.621,14.776-0.098,21.557c-0.884,8.344-5.821,16.931-10.074,24.111&#10;&#9;&#9;&#9;c-3.421,1.395-7.981,2.287-9.79,2.778C256.965,424.182,250.147,424.277,243.141,424.502z M484.281,472.659&#10;&#9;&#9;&#9;c-2.437-0.031-4.842,0.607-7.241,0.925c-5.054,0.668-10.126,1.654-15.202,2.049c-10.425,0.811-20.682,0.25-31.065,1.884&#10;&#9;&#9;&#9;c-5.989,0.942-12.226,2.168-18.289,2.366c-4.762,0.155-9.469-0.186-14.223,0.38c-4.534,0.541-8.999,1.798-13.561,2.066&#10;&#9;&#9;&#9;c-5.165,0.303-10.361-0.221-15.531-0.156c-11.596,0.145-22.633,0.986-34.115,2.299c-10.57,1.21-21.497,0.091-32.103-0.053&#10;&#9;&#9;&#9;c-4.882-0.066-9.75-0.355-14.537,0.756c-4.169,0.967-8.704,3.202-9.745-2.418c-0.823-4.439-0.242-8.95-0.402-13.422&#10;&#9;&#9;&#9;c4.628,0.147,9.194,0.026,13.792-0.763c6.621-1.137,13.149-2.623,19.868-3.134c6.542-0.497,13.108-0.142,19.634-0.913&#10;&#9;&#9;&#9;c5.944-0.703,10.819,0.072,16.699,0.826c5.943,0.763,11.093-0.788,16.939-1.37c5.592-0.558,11.221,0.286,16.83-0.27&#10;&#9;&#9;&#9;c6.127-0.606,12.01-1.664,18.198-1.323c4.886,0.267,9.738,0.787,14.614,0.117c5.711-0.783,10.592-2.015,16.45-1.883&#10;&#9;&#9;&#9;c6.915,0.156,13.834,0.051,20.748,0.202c6.067,0.131,12.157,1.023,18.221,0.446c2.891-0.275,5.416-1.196,8.21-1.833&#10;&#9;&#9;&#9;c3.391-0.774,5.43,0.408,8.635,1.102c-0.209,4.189,0.5,8.395,0.486,12.585C486.485,472.923,485.377,472.673,484.281,472.659z&#10;&#9;&#9;&#9; M500.127,435.442c-0.576,4.511-1.438,8.972-1.946,13.478c-1.746-0.03-3.514-0.041-5.349-0.163&#10;&#9;&#9;&#9;c-4.815-0.32-9.079-2.592-14.008-1.981c-4.317,0.534-8.095,2.364-12.524,2.445c-5.124,0.095-10.24-0.511-15.367-0.5&#10;&#9;&#9;&#9;c-9.76,0.021-20.658-1.199-30.271,0.597c-4.45,0.831-8.262,2.16-12.86,2.106c-4.408-0.051-8.81-0.594-13.221-0.354&#10;&#9;&#9;&#9;c-4.926,0.27-9.748,1.45-14.658,1.855c-5.401,0.446-10.825-0.267-16.214,0.392c-5.253,0.644-9.952,2.08-15.299,1.356&#10;&#9;&#9;&#9;c-5.002-0.678-9.56-1.647-14.631-1.056c-10.095,1.176-20.256,0.941-30.325,2.46c-5.615,0.847-11.185,2.435-16.83,2.991&#10;&#9;&#9;&#9;c-5.242,0.516-10.518-0.177-15.768,0.041c-1.361,0.057-4.25,1.03-5.413,0.537c-0.964-0.411-0.9-1.808-1.495-3.608&#10;&#9;&#9;&#9;c-1.529-4.62-5.805-9.875-4.6-14.883c0.909-3.781,4.729-5.165,8.923-5.787c1.515,0.704,3.056,1.342,4.679,1.704&#10;&#9;&#9;&#9;c3.577,0.799,7.567-0.037,11.091-0.756c4.361-0.889,8.345-2.121,12.851-1.942c4.218,0.167,8.39,0.613,12.616,0.683&#10;&#9;&#9;&#9;c8.706,0.145,17.128,2.035,25.791,2.475c9.071,0.463,18.139-0.333,27.205-0.544c9.51-0.223,19.243,0.651,28.701-0.403&#10;&#9;&#9;&#9;c9.203-1.025,18.374-1.775,27.561-2.944c9.216-1.173,18.905-0.424,28.193-0.444c4.218-0.009,8.473,0.174,12.673-0.255&#10;&#9;&#9;&#9;c4.512-0.461,8.908-1.555,13.458-1.674c4.983-0.13,9.958,0.388,14.923-0.241c1.905-0.241,3.714-0.673,5.563-1.163&#10;&#9;&#9;&#9;c0.834-0.22,1.657-0.474,2.497-0.67c0.667-0.192,1.343-0.329,2.032-0.412c0.985,0.205,1.446-0.151,1.387-1.069&#10;&#9;&#9;&#9;c0.254,0.005,0.395-0.028,0.472-0.08c0.009,0.007,0.012,0.014,0.022,0.022c0.302,0.291,0.693,1.755,0.751,2.178&#10;&#9;&#9;&#9;C500.994,431.669,500.371,433.525,500.127,435.442z" fill="currentColor" data-original="#000000"/></g></g><g><g><path d="M507.05,70.177c-6.108-21.024-19.811-34.923-36.99-47.682c-7.294-5.417-14.289-11.722-23.643-12.983&#10;&#9;&#9;&#9;c-8.397-1.133-15.798,0.828-23.114,4.052c-1.117-0.108-2.241-0.177-3.369-0.172c-4.714,0.019-9.002,1.215-13.42,2.758&#10;&#9;&#9;&#9;c-8.423,2.943-15.511,8.319-22.776,13.401c-6.987,4.888-13.687,10.356-18.683,17.342c-4.767,6.669-7.629,15.025-10.02,22.798&#10;&#9;&#9;&#9;c-2.508,8.16-4.153,16.317-4.534,24.856c-0.437,9.78-1.657,20.468-0.5,30.202c0.505,4.23,2.271,8.542,3.438,12.646&#10;&#9;&#9;&#9;c1.213,4.265,3.233,8.239,5.713,11.909c4.793,7.093,10.976,13.263,18.197,17.883c8.23,5.268,17.797,7.641,27.138,10.085&#10;&#9;&#9;&#9;c8.289,2.169,16.631,6.049,25.392,5.038c8.471-0.978,16.803-2.021,25.139-3.942c8.731-2.011,14.923-7.785,22.314-12.539&#10;&#9;&#9;&#9;c3.158-2.032,5.332-4.798,7.408-7.891c2.37-3.528,5.327-6.487,7.777-9.947c4.871-6.872,8.943-15.291,12.507-22.925&#10;&#9;&#9;&#9;c4.094-8.767,3.597-17.713,4.7-27.076C510.909,87.934,509.863,79.863,507.05,70.177z M499.177,99.115&#10;&#9;&#9;&#9;c-0.433,5.028,0.02,10.122-0.955,15.092c-1.359,6.92-5.023,13.293-8.141,19.567c-3.385,6.809-8.006,11.89-12.302,18.019&#10;&#9;&#9;&#9;c-2.397,3.42-4.471,4.888-8.04,6.751c-3.581,1.87-6.632,4.972-10.365,6.505c-6.124,2.515-13.938,3.103-20.466,3.264&#10;&#9;&#9;&#9;c-3.707,0.092-7.192,1.211-10.84,1.443c-3.337,0.213-6.675-0.865-9.84-1.772c-7.817-2.244-15.845-4.017-23.567-6.548&#10;&#9;&#9;&#9;c-15.231-4.993-25.7-16.031-30.665-31.012c-1.023-3.086-2.443-5.808-2.73-9.075c-0.391-4.448-0.134-9.059-0.225-13.526&#10;&#9;&#9;&#9;c-0.161-7.999-0.916-16.094,0.022-24.067c0.978-8.325,3.08-17.51,6.455-25.211c3.432-7.836,9.416-13.921,16.167-19.025&#10;&#9;&#9;&#9;c7.025-5.312,14.945-11.728,23.133-15.074c3.207-1.31,6.519-2.957,9.899-3.865c0.62,0.709,1.568,1.122,2.656,0.825&#10;&#9;&#9;&#9;c4.412-1.207,9.363-0.798,13.944-1.128c3.101-0.224,6.437,0.08,9.525,0.385c8.068,0.795,13.761,5.859,20.032,10.543&#10;&#9;&#9;&#9;c12.396,9.258,25.067,19.197,30.928,34.083c2.664,6.766,5.923,15.426,6.157,22.724C500.078,91.727,499.496,95.423,499.177,99.115z&#10;&#9;&#9;&#9;" fill="currentColor" data-original="#000000"/></g></g><g><g><path d="M487.22,76.769c-4.538-15.622-14.719-25.948-27.486-35.43c-5.42-4.026-10.617-8.71-17.567-9.646&#10;&#9;&#9;&#9;c-6.24-0.842-11.739,0.615-17.175,3.01c-0.831-0.08-1.665-0.13-2.503-0.127c-3.502,0.014-6.689,0.903-9.972,2.049&#10;&#9;&#9;&#9;c-6.26,2.187-11.525,6.182-16.924,9.958c-5.191,3.631-10.171,7.695-13.883,12.886c-3.542,4.955-5.669,11.164-7.446,16.94&#10;&#9;&#9;&#9;c-1.864,6.062-3.086,12.124-3.37,18.469c-0.323,7.267-1.231,15.208-0.371,22.442c0.376,3.143,1.687,6.346,2.555,9.395&#10;&#9;&#9;&#9;c0.902,3.169,2.402,6.123,4.245,8.849c3.562,5.271,8.157,9.855,13.521,13.288c6.116,3.915,13.223,5.678,20.166,7.495&#10;&#9;&#9;&#9;c6.158,1.612,12.357,4.495,18.867,3.743c6.294-0.726,12.486-1.502,18.68-2.929c6.487-1.494,11.09-5.784,16.58-9.317&#10;&#9;&#9;&#9;c2.345-1.51,3.962-3.565,5.504-5.864c1.761-2.621,3.958-4.82,5.78-7.391c3.619-5.106,6.644-11.362,9.294-17.034&#10;&#9;&#9;&#9;c3.041-6.515,2.673-13.161,3.49-20.119C490.087,89.963,489.31,83.966,487.22,76.769z M481.365,98.27&#10;&#9;&#9;&#9;c-0.32,3.737,0.016,7.521-0.709,11.215c-1.008,5.143-3.733,9.878-6.049,14.539c-2.516,5.06-5.949,8.835-9.142,13.389&#10;&#9;&#9;&#9;c-1.781,2.541-3.323,3.631-5.974,5.017c-2.659,1.39-4.928,3.695-7.702,4.834c-4.55,1.869-10.356,2.306-15.207,2.425&#10;&#9;&#9;&#9;c-2.756,0.068-5.344,0.9-8.054,1.072c-2.48,0.157-4.961-0.643-7.312-1.317c-5.808-1.667-11.774-2.985-17.51-4.866&#10;&#9;&#9;&#9;c-11.317-3.711-19.096-11.912-22.785-23.043c-0.759-2.293-1.816-4.315-2.03-6.743c-0.291-3.305-0.099-6.731-0.167-10.049&#10;&#9;&#9;&#9;c-0.118-5.944-0.679-11.96,0.017-17.884c0.729-6.186,2.291-13.011,4.797-18.734c2.552-5.823,6.997-10.343,12.014-14.137&#10;&#9;&#9;&#9;c5.22-3.947,11.106-8.714,17.189-11.2c2.382-0.973,4.844-2.197,7.354-2.872c0.46,0.527,1.164,0.834,1.974,0.613&#10;&#9;&#9;&#9;c3.279-0.898,6.957-0.592,10.362-0.839c2.303-0.166,4.782,0.059,7.077,0.286c5.995,0.591,10.225,4.354,14.886,7.833&#10;&#9;&#9;&#9;c9.21,6.879,18.625,14.265,22.98,25.326c1.98,5.027,4.402,11.462,4.575,16.884C482.035,92.781,481.603,95.528,481.365,98.27z" fill="currentColor" data-original="#000000"/></g></g><g><g><path d="M452.293,74.52c-5.226,5.991-10.054,12.416-14.861,18.837c-0.04-0.252-0.082-0.492-0.13-0.696&#10;&#9;&#9;&#9;c-0.769-3.297-1.223-6.424-0.987-9.838c0.273-3.907,1.374-7.717,1.578-11.64c0.232-4.456-0.198-9.009-0.73-13.426&#10;&#9;&#9;&#9;c-0.567-4.717-6.763-4.715-7.344,0c-0.677,5.5-0.445,11.058-1.513,16.499c-0.879,4.486-2.041,8.661-1.988,13.276&#10;&#9;&#9;&#9;c0.04,3.554,0.158,8.134,0.851,12.356c-3.776,0.811-7.728,1.337-11.302,1.532c-3.043,0.166-6.277,0.524-9.269-0.028&#10;&#9;&#9;&#9;c-3.467-0.642-6.291-1.98-9.894-2.068c-7.451-0.182-8.247,10.223-1.688,12.486c7.683,2.652,14.844,3.138,22.919,2.39&#10;&#9;&#9;&#9;c1.306-0.121,2.704-0.283,4.134-0.475c-0.679,1.05-1.32,2.127-1.91,3.246c-2.124,4.031-4.637,7.53-3.714,12.21&#10;&#9;&#9;&#9;c0.221,1.122,2.073,1.138,2.283,0c1.056-5.756,4.182-11.158,7.828-16.187c3.999-0.768,7.999-1.876,11.177-3.51&#10;&#9;&#9;&#9;c3.641-1.873,3.753-6.839,1.234-9.581c-0.346-0.377-0.589-1.004-0.779-1.729c5.429-7.144,10.594-14.588,16.427-21.331&#10;&#9;&#9;&#9;C455.993,75.252,453.689,72.922,452.293,74.52z" fill="currentColor" data-original="#000000"/></g></g><g><g><path d="M287.317,215.318c-1.388-3.711-4.364-6.884-8.28-7.931c-4.22-1.127-8.716,0.743-10.928,4.503&#10;&#9;&#9;&#9;c-1.709,2.908-2.118,6.726-1.189,9.947c1.276,4.424,5.128,6.842,9.366,6.874c0.454,0.083,0.921,0.117,1.4,0.11&#10;&#9;&#9;&#9;c0.511,0.084,1.029,0.126,1.553,0.114C285.754,228.783,289.436,220.984,287.317,215.318z" fill="currentColor" data-original="#000000"/></g></g><g><g><path d="M464.789,82.167c-0.381,0.188-0.761,0.377-1.14,0.567c-1.318,0.653-1.114,2.11-0.267,2.894&#10;&#9;&#9;&#9;c-0.935,1.859-2.982,3.709-4.011,5.024c-1.89,2.414-3.367,5.152-5.331,7.508c-3.86,4.635-7.479,9.427-11.513,13.923&#10;&#9;&#9;&#9;c-3.513,3.916-6.5,8.168-9.513,12.466c-2.557,3.648-5.597,7.041-5.504,11.737c0.026,1.37,1.969,1.628,2.372,0.322&#10;&#9;&#9;&#9;c1.55-5.017,6.187-9.816,9.239-14.093c3.803-5.333,8.625-9.779,12.354-15.133c3.411-4.899,7.248-9.771,10.939-14.486&#10;&#9;&#9;&#9;c2.172-2.776,5.297-5.321,5.179-9.121C467.546,82.304,466.063,81.537,464.789,82.167z" fill="currentColor" data-original="#000000"/></g></g><g><g><path d="M103.085,316.08c-3.061-0.461-3.999,0.476-6.366,2.069c-2.356,1.587-4.925,2.852-7.278,4.5&#10;&#9;&#9;&#9;c-4.304,3.015-9.374,6.939-8.005,12.853c0.788,3.401,5.74,3.165,6.653,0c0.956-3.314,3.492-5.056,6.153-7.049&#10;&#9;&#9;&#9;c1.452-1.086,2.876-2.13,4.413-3.093c0.495-0.309,3.159-2.661,3.53-2.637C105.933,322.963,106.88,316.653,103.085,316.08z" fill="currentColor" data-original="#000000"/></g></g><g><g><path d="M99.382,334.831c-0.453-2.43-4.7-1.902-4.366,0.59c0.26,1.936-4.998,2.977-6.48,3.753&#10;&#9;&#9;&#9;c-3.657,1.913-8.398,5.044-10.255,8.839c-1.307,2.67,1.289,5.059,3.892,3.892c2.806-1.258,4.965-3.79,7.353-5.685&#10;&#9;&#9;&#9;c1.612-1.279,3.333-2.281,5.05-3.4C97.515,340.905,100.095,338.659,99.382,334.831z" fill="currentColor" data-original="#000000"/></g></g><g><g><path d="M94.319,350.944c-0.913-2.605-4.443-1.525-4.053,1.116c0.156,1.058-6.709,4.696-8.037,5.667&#10;&#9;&#9;&#9;c-2.378,1.739-8.072,5.748-5.79,9.244c0.331,0.507,0.893,0.792,1.451,0.805l-0.017,0.017c2.132,0.235,3.834-2.145,5.3-3.41&#10;&#9;&#9;&#9;c1.869-1.612,3.755-3.16,5.743-4.622C91.677,357.729,95.717,354.933,94.319,350.944z" fill="currentColor" data-original="#000000"/></g></g><g><g><path d="M86.508,367.543c-0.4-1.405-1.581-1.953-2.679-2.772c-0.382-0.284-0.716,0.294-0.468,0.607&#10;&#9;&#9;&#9;c1.343,1.693-1.169,4.286-2.281,5.446c-1.514,1.581-2.82,3.015-3.675,5.059c-0.371,0.887,0.747,2.006,1.634,1.635&#10;&#9;&#9;&#9;c2.905-1.216,5.316-3.093,6.828-5.943C86.503,370.377,86.889,368.887,86.508,367.543z" fill="currentColor" data-original="#000000"/></g></g><g><g><path d="M80.714,414.176c-5.275,3.925-13.112,10.221-11.798,17.656c0.157,0.893,0.988,1.506,1.78,1.781&#10;&#9;&#9;&#9;c2.784,0.965,4.752-4.148,5.935-5.874c2.214-3.231,5.041-5.928,8.124-8.329C87.709,417.111,83.756,411.912,80.714,414.176z" fill="currentColor" data-original="#000000"/></g></g><g><g><path d="M80.276,433.786c-0.758,2.184-2.626,4.237-3.843,6.21c-1.153,1.869-2.695,4.515-2.685,6.743&#10;&#9;&#9;&#9;c0.007,1.712,1.562,2.66,3.119,2.376c3.022-0.552,4.374-4.16,5.268-6.715c0.965-2.757,2.267-5.031,2.459-8.03&#10;&#9;&#9;&#9;C84.76,431.775,81.051,431.557,80.276,433.786z" fill="currentColor" data-original="#000000"/></g></g><g><g><path d="M179.988,380.537c-0.375-2.407-4.207-2.246-4.706,0c-1.205,5.416-5.822,9.899-4.611,15.847&#10;&#9;&#9;&#9;c0.662,3.247,5.614,3.066,6.388,0c0.616-2.435,1.07-4.905,1.694-7.34C179.544,385.967,180.489,383.76,179.988,380.537z" fill="currentColor" data-original="#000000"/></g></g><g><g><path d="M185.235,386.028c-0.685,0.982-1.241,2.237-2.009,3.179c-0.026-0.03-0.418,0.293-0.544,0.377&#10;&#9;&#9;&#9;c-0.58,0.392-1.088,0.847-1.469,1.437c-1.346,2.085-0.892,6.194,1.865,6.961c1.21,0.336,2.507-0.255,3.139-1.333&#10;&#9;&#9;&#9;c0.288-0.493,0.408-1.023,0.486-1.572c0.489-0.177,1.332-1.275,1.478-1.495c0.338-0.508,0.57-1.049,0.793-1.622&#10;&#9;&#9;&#9;c0.489-1.258,0.715-2.599,1.116-3.885C191.035,385.05,186.879,383.67,185.235,386.028z" fill="currentColor" data-original="#000000"/></g></g><g><g><path d="M198.95,393.833c-0.889-1.722-2.239-1.905-3.999-2.062c-2.861-0.255-3.636,3.122-2.192,4.957&#10;&#9;&#9;&#9;c-0.027,0.503-0.079,1.003-0.198,1.659c-0.245,1.359-0.343,2.794,0.35,3.975c0.169,0.429,0.393,0.782,0.725,1.164&#10;&#9;&#9;&#9;c0.526,0.609,1.588,0.696,2.255,0.291c0.301-0.183,0.545-0.386,0.777-0.628c1.599-1.05,2.48-3.201,2.755-5.012&#10;&#9;&#9;&#9;C199.646,396.701,199.655,395.198,198.95,393.833z" fill="currentColor" data-original="#000000"/></g></g><g></g><g></g><g></g><g></g><g></g><g></g><g></g><g></g><g></g><g></g><g></g><g></g><g></g><g></g><g></g></g></svg>